<svg width="30" height="30" viewBox="0 0 30 30" fill="none" xmlns="http://www.w3.org/2000/svg">
<path d="M30 15C30 6.71573 23.2843 0 15 0C6.71573 0 0 6.71573 0 15C0 22.4869 5.48528 28.6925 12.6562 29.8177V19.3359H8.84766V15H12.6562V11.6953C12.6562 7.93593 14.8957 5.85937 18.3219 5.85937C19.9631 5.85937 21.6797 6.15234 21.6797 6.15234V9.84375H19.7882C17.9249 9.84375 17.3438 11 17.3438 12.1862V15H21.5039L20.8389 19.3359H17.3438V29.8177C24.5147 28.6925 30 22.4869 30 15Z" fill="#1877F2"/>
<path d="M20.8389 19.3359L21.5039 15H17.3438V12.1862C17.3438 11 17.9249 9.84375 19.7882 9.84375H21.6797V6.15234C21.6797 6.15234 19.9631 5.85938 18.3219 5.85938C14.8957 5.85938 12.6562 7.93593 12.6562 11.6953V15H8.84766V19.3359H12.6562V29.8177C14.2093 30.0608 15.7907 30.0608 17.3438 29.8177V19.3359H20.8389Z" fill="white"/>
</svg>
