<svg width="30" height="30" viewBox="0 0 30 30" fill="none" xmlns="http://www.w3.org/2000/svg">
<g clip-path="url(#clip0_10_49)">
<path d="M26.8085 1.87476H10.6887C10.3401 1.87543 10.0059 2.0144 9.75962 2.26117C9.51333 2.50794 9.375 2.84235 9.375 3.191V4.68747L18.4592 7.50019L28.1248 4.68747V3.191C28.1248 2.84191 27.9861 2.50712 27.7392 2.26027C27.4924 2.01343 27.1576 1.87476 26.8085 1.87476Z" fill="#0364B8"/>
<path d="M29.672 16.3172C29.8093 15.8857 29.9189 15.4458 30.0001 15.0003C30 14.8908 29.971 14.7833 29.9162 14.6885C29.8614 14.5937 29.7827 14.515 29.6878 14.4602L29.6758 14.4526H29.672L19.5114 8.66473C19.2842 8.51876 19.0199 8.44116 18.7498 8.44116C18.4798 8.44116 18.2155 8.51876 17.9883 8.66473L7.82835 14.4514H7.82454L7.81312 14.4577C7.7179 14.5125 7.63883 14.5915 7.58389 14.6867C7.52896 14.7818 7.5001 14.8898 7.50024 14.9997C7.58147 15.4452 7.69106 15.885 7.82835 16.3166L18.602 24.1969L29.672 16.3172Z" fill="#0A2767"/>
<path d="M22.4967 4.6875H15.9371L14.0427 7.50022L15.9371 10.3129L22.4967 15.9371H28.1215V10.3123L22.4967 4.6875Z" fill="#28A8EA"/>
<path d="M9.375 4.6875H15.9372V10.3123H9.375V4.6875Z" fill="#0078D4"/>
<path d="M22.4998 4.6875H28.1246V10.3123H22.4998V4.6875Z" fill="#50D9FF"/>
<path d="M22.5 15.9371L15.9372 10.3123H9.375V15.9371L15.9372 21.5619L26.0914 23.2195L22.5 15.9371Z" fill="#0364B8"/>
<path d="M15.937 10.3123H22.4992V15.9371H15.937V10.3123Z" fill="#0078D4"/>
<path d="M9.375 15.937H15.9372V21.5618H9.375V15.937Z" fill="#064A8C"/>
<path d="M22.4998 15.937H28.1246V21.5618H22.4998V15.937Z" fill="#0078D4"/>
<path opacity="0.5" d="M18.9282 23.6415L7.87402 15.5791L8.33794 14.7636C8.33794 14.7636 18.409 20.4994 18.5632 20.5876C18.6261 20.6128 18.6935 20.6247 18.7612 20.6227C18.8288 20.6208 18.8954 20.6049 18.9567 20.5762L29.2061 14.7375L29.6713 15.5493L18.9282 23.6415Z" fill="#0A2767"/>
<path d="M29.6878 15.5405L29.6745 15.5481L19.5139 21.336C19.3121 21.4661 19.0803 21.5423 18.8406 21.5572C18.6009 21.572 18.3614 21.5252 18.145 21.421L21.6806 26.1694L29.4187 27.8525V27.8563C29.5987 27.7261 29.7453 27.5551 29.8463 27.3573C29.9474 27.1594 30.0001 26.9405 30.0001 26.7184V14.9998C30 15.1094 29.9712 15.217 29.9164 15.3119C29.8616 15.4068 29.7827 15.4857 29.6878 15.5405V15.5405Z" fill="#1490DF"/>
<path opacity="0.05" d="M29.9999 26.719V26.0273L20.6409 20.6963L19.5113 21.3404C19.3094 21.4706 19.0776 21.5467 18.8379 21.5616C18.5982 21.5765 18.3587 21.5296 18.1423 21.4255L21.6804 26.1688L29.4186 27.8531V27.8569C29.5986 27.7267 29.7451 27.5557 29.8462 27.3579C29.9472 27.1601 29.9999 26.9411 29.9999 26.719V26.719Z" fill="black"/>
<path opacity="0.1" d="M29.953 27.0775L19.696 21.2344L19.5132 21.3372C19.3115 21.4675 19.0797 21.5439 18.84 21.559C18.6003 21.5741 18.3608 21.5275 18.1443 21.4235L21.6824 26.1681L29.4186 27.853V27.8568C29.681 27.6667 29.8698 27.3919 29.953 27.0788V27.0775Z" fill="black"/>
<path d="M7.82838 15.5532V15.5436H7.8176L7.78967 15.5246C7.70029 15.4695 7.62668 15.3922 7.57597 15.3002C7.52527 15.2083 7.49919 15.1048 7.50028 14.9998V26.7184C7.50003 26.9031 7.53623 27.0861 7.60682 27.2568C7.67741 27.4276 7.78099 27.5827 7.91163 27.7134C8.04227 27.844 8.19741 27.9476 8.36815 28.0182C8.53889 28.0888 8.72188 28.125 8.90664 28.1247H28.5938C28.711 28.1236 28.8276 28.1078 28.9409 28.0778C28.9997 28.0675 29.0566 28.0484 29.1097 28.0213C29.1297 28.0193 29.1491 28.0128 29.1662 28.0022C29.243 27.9709 29.3155 27.9299 29.382 27.8804C29.401 27.8709 29.4099 27.8709 29.4194 27.8525L7.82838 15.5532Z" fill="#28A8EA"/>
<path opacity="0.1" d="M16.8751 23.1263V7.81186C16.8741 7.48042 16.7419 7.16288 16.5073 6.9287C16.2728 6.69451 15.9551 6.56276 15.6236 6.56226H9.40416V13.5522L7.82836 14.4502H7.82391L7.81249 14.4565C7.7172 14.5115 7.63814 14.5908 7.5833 14.6862C7.52847 14.7816 7.49982 14.8897 7.50025 14.9998V24.3747H15.6236C15.9548 24.3742 16.2724 24.2426 16.5069 24.0087C16.7414 23.7748 16.8738 23.4575 16.8751 23.1263V23.1263Z" fill="black"/>
<path opacity="0.2" d="M15.9378 24.0643V8.74985C15.9368 8.41874 15.8048 8.10148 15.5707 7.86735C15.3365 7.63323 15.0193 7.50125 14.6882 7.50024H9.40416V13.5528L7.82836 14.4508H7.82391L7.81249 14.4572C7.7172 14.5122 7.63814 14.5914 7.5833 14.6868C7.52847 14.7822 7.49982 14.8904 7.50025 15.0004V25.3126H14.6882C15.0191 25.3116 15.3361 25.1798 15.5702 24.946C15.8043 24.7121 15.9364 24.3952 15.9378 24.0643V24.0643Z" fill="black"/>
<path opacity="0.2" d="M15.9378 22.1877V8.74985C15.9368 8.41874 15.8048 8.10148 15.5707 7.86735C15.3365 7.63323 15.0193 7.50125 14.6882 7.50024H9.40416V13.5528L7.82836 14.4508H7.82391L7.81249 14.4572C7.7172 14.5122 7.63814 14.5914 7.5833 14.6868C7.52847 14.7822 7.49982 14.8904 7.50025 15.0004V23.4373H14.6882C15.0193 23.4363 15.3365 23.3043 15.5707 23.0702C15.8048 22.836 15.9368 22.5188 15.9378 22.1877V22.1877Z" fill="black"/>
<path opacity="0.2" d="M15.0004 22.1877V8.74985C14.9994 8.41874 14.8674 8.10148 14.6333 7.86735C14.3992 7.63323 14.0819 7.50125 13.7508 7.50024H9.40416V13.5528L7.82836 14.4508H7.82391L7.81249 14.4572C7.7172 14.5122 7.63814 14.5914 7.5833 14.6868C7.52847 14.7822 7.49982 14.8904 7.50025 15.0004V23.4373H13.7508C14.0819 23.4363 14.3992 23.3043 14.6333 23.0702C14.8674 22.836 14.9994 22.5188 15.0004 22.1877V22.1877Z" fill="black"/>
<path d="M1.2496 7.50024H13.752C14.0834 7.50024 14.4012 7.6319 14.6356 7.86624C14.8699 8.10059 15.0016 8.41843 15.0016 8.74985V21.2522C15.0016 21.5836 14.8699 21.9015 14.6356 22.1358C14.4012 22.3702 14.0834 22.5018 13.752 22.5018H1.2496C1.08534 22.5018 0.922695 22.4694 0.770962 22.4065C0.619229 22.3436 0.481389 22.2514 0.365328 22.1352C0.249267 22.0189 0.157261 21.8809 0.0945748 21.7291C0.0318885 21.5773 -0.00024882 21.4146 1.45055e-06 21.2503V8.74985C1.45055e-06 8.41843 0.131656 8.10059 0.366002 7.86624C0.600348 7.6319 0.91819 7.50024 1.2496 7.50024V7.50024Z" fill="#0078D4"/>
<path d="M3.62506 12.6262C3.95715 11.9184 4.49333 11.3261 5.16469 10.9254C5.90817 10.4996 6.75477 10.2872 7.61122 10.3117C8.4042 10.2946 9.18663 10.4957 9.87308 10.893C10.5194 11.278 11.04 11.8424 11.3715 12.5177C11.7324 13.2621 11.9123 14.0813 11.8963 14.9084C11.9137 15.7723 11.7285 16.6282 11.3556 17.4076C11.017 18.1069 10.4808 18.6916 9.81342 19.0894C9.10001 19.4994 8.28785 19.7059 7.46526 19.6866C6.65473 19.706 5.85442 19.5027 5.15136 19.0989C4.50001 18.7134 3.97343 18.1485 3.63458 17.4717C3.27101 16.7384 3.08864 15.9286 3.10275 15.1102C3.08712 14.2534 3.26568 13.4042 3.62506 12.6262V12.6262ZM5.2656 16.6181C5.44267 17.0654 5.7428 17.4533 6.13125 17.737C6.52706 18.0141 7.00126 18.1571 7.4843 18.1451C7.99865 18.1651 8.50558 18.0174 8.92873 17.7243C9.31277 17.4406 9.60514 17.0505 9.76963 16.6023C9.95398 16.1027 10.0448 15.5735 10.0374 15.041C10.043 14.5035 9.95712 13.9689 9.78359 13.4602C9.63078 13.0025 9.3489 12.5987 8.97189 12.2975C8.55991 11.9892 8.05427 11.8323 7.54014 11.8533C7.04671 11.8407 6.56195 11.9846 6.15536 12.2645C5.75947 12.5489 5.45264 12.94 5.27068 13.3923C4.86798 14.4292 4.86572 15.579 5.26433 16.6175L5.2656 16.6181Z" fill="white"/>
</g>
<defs>
<clipPath id="clip0_10_49">
<rect width="30" height="30" fill="white"/>
</clipPath>
</defs>
</svg>
